<?xml version="1.0" encoding="UTF-8" ?>
<!DOCTYPE svg PUBLIC "-//W3C//DTD SVG 1.1//EN" "http://www.w3.org/Graphics/SVG/1.1/DTD/svg11.dtd">
<svg width="320pt" height="281pt" viewBox="0 0 320 281" version="1.1" xmlns="http://www.w3.org/2000/svg">
<path fill="#000000" stroke="#000000" stroke-width="0.09375" opacity="1.00" d=" M 283.51 0.00 L 287.37 0.00 C 287.33 21.93 287.22 43.86 287.18 65.78 C 279.25 68.06 272.00 62.30 264.12 63.52 C 258.45 64.24 252.75 64.61 247.03 64.58 C 225.36 64.58 203.69 64.60 182.02 64.57 C 178.13 64.55 174.31 65.30 170.46 65.74 C 165.94 66.35 161.56 64.59 157.05 64.58 C 149.68 64.56 142.31 64.61 134.94 64.55 C 132.81 64.42 130.81 65.14 128.92 66.03 C 125.17 65.43 121.59 64.10 117.87 63.37 C 114.28 62.96 110.66 63.44 107.07 63.51 C 82.47 64.45 57.87 65.25 33.26 65.96 C 33.18 55.64 33.40 45.32 33.17 35.00 C 31.92 24.87 32.12 14.64 31.90 4.46 C 41.60 3.58 51.30 2.89 61.01 2.16 C 80.31 0.35 99.69 3.16 119.02 1.91 C 134.98 0.88 150.96 2.08 166.93 2.10 C 179.94 1.76 192.96 1.86 205.97 1.59 C 211.06 1.52 216.14 0.66 221.22 1.23 C 233.09 2.58 245.07 3.72 257.00 2.56 C 265.82 1.55 274.67 0.83 283.51 0.00 M 214.08 14.38 C 210.30 24.30 206.89 34.37 203.23 44.33 C 202.93 46.30 200.62 46.21 199.20 46.93 C 199.19 47.78 199.17 49.49 199.16 50.34 C 202.96 50.36 206.77 50.36 210.58 50.34 C 210.65 48.30 210.70 46.15 208.09 45.99 C 208.62 44.45 209.16 42.90 209.70 41.35 C 212.61 41.36 215.51 41.36 218.42 41.34 C 218.93 42.90 219.44 44.46 219.95 46.02 C 218.04 46.71 218.47 48.73 218.31 50.34 C 222.12 50.36 225.93 50.36 229.75 50.34 C 229.74 49.48 229.72 47.74 229.70 46.87 C 229.03 46.63 227.67 46.15 226.99 45.91 C 223.38 35.37 219.85 24.79 216.03 14.32 C 215.54 14.34 214.57 14.37 214.08 14.38 M 71.52 16.82 C 70.45 20.14 68.92 23.34 68.25 26.78 C 68.08 33.19 68.28 39.60 68.17 46.01 C 69.83 47.61 71.37 49.34 73.21 50.72 C 79.00 52.17 84.78 49.97 90.22 48.11 C 91.30 44.71 92.72 41.40 93.50 37.92 C 93.70 31.81 93.52 25.69 93.56 19.58 C 91.81 17.94 90.07 16.29 88.32 14.66 C 82.62 14.49 76.82 14.37 71.52 16.82 M 98.75 15.11 C 98.76 16.24 98.77 17.37 98.78 18.49 C 99.36 18.70 100.52 19.11 101.09 19.31 C 101.15 28.23 101.11 37.16 101.11 46.08 C 100.49 46.27 99.25 46.63 98.63 46.82 C 98.63 47.70 98.62 49.47 98.62 50.35 C 102.49 50.35 106.37 50.36 110.24 50.35 C 110.24 49.45 110.24 47.66 110.24 46.76 C 109.65 46.58 108.47 46.21 107.88 46.02 C 107.87 41.81 107.88 37.60 107.87 33.39 C 109.33 33.37 110.79 33.35 112.25 33.34 C 112.42 33.97 112.76 35.24 112.94 35.87 C 114.22 35.96 115.51 36.05 116.80 36.14 C 116.84 32.88 116.83 29.62 116.88 26.35 C 115.59 26.35 114.31 26.34 113.02 26.34 C 112.73 27.21 112.43 28.08 112.14 28.94 C 110.71 28.93 109.29 28.92 107.87 28.90 C 107.87 25.73 107.87 22.55 107.87 19.38 C 110.05 19.36 112.24 19.35 114.42 19.34 C 114.74 20.35 115.05 21.36 115.37 22.37 C 116.48 22.36 118.69 22.35 119.79 22.34 C 119.80 21.43 119.80 19.60 119.81 18.69 C 118.08 17.27 116.75 14.66 114.16 14.94 C 109.02 14.94 103.88 14.84 98.75 15.11 M 122.26 14.94 C 122.20 16.06 122.16 17.19 122.11 18.32 C 122.67 18.60 123.79 19.15 124.35 19.42 C 124.58 28.31 124.37 37.21 124.44 46.11 C 123.81 46.30 122.55 46.67 121.92 46.86 C 121.92 47.73 121.92 49.46 121.92 50.33 C 125.81 50.37 129.70 50.36 133.60 50.35 C 133.59 49.46 133.59 47.67 133.59 46.78 C 133.02 46.60 131.87 46.23 131.30 46.05 C 131.29 41.83 131.31 37.60 131.26 33.38 C 132.69 33.36 134.12 33.35 135.54 33.33 C 135.77 34.00 136.21 35.34 136.44 36.01 C 137.70 36.04 138.97 36.08 140.24 36.11 C 140.25 32.82 140.25 29.53 140.24 26.24 C 138.05 26.23 135.50 25.99 135.40 28.92 C 134.03 28.92 132.65 28.93 131.29 28.93 C 131.30 25.74 131.30 22.55 131.27 19.36 C 133.45 19.36 135.63 19.36 137.81 19.37 C 138.11 20.36 138.40 21.36 138.70 22.35 C 140.18 22.35 141.67 22.35 143.15 22.35 C 143.16 21.44 143.17 19.61 143.18 18.69 C 141.97 17.52 140.77 16.34 139.58 15.15 C 133.81 14.77 128.03 14.99 122.26 14.94 M 145.32 15.35 C 145.34 16.50 145.36 17.65 145.38 18.80 C 145.99 18.99 147.22 19.37 147.84 19.57 C 147.74 28.42 147.79 37.28 147.80 46.14 C 147.19 46.31 145.97 46.66 145.36 46.84 C 145.35 47.72 145.34 49.47 145.33 50.35 C 149.19 50.36 153.06 50.36 156.92 50.34 C 156.92 49.47 156.91 47.72 156.90 46.85 C 156.33 46.67 155.20 46.32 154.63 46.14 C 154.63 37.28 154.67 28.42 154.61 19.56 C 155.17 19.37 156.28 18.99 156.84 18.80 C 156.88 17.65 156.91 16.51 156.95 15.36 C 153.07 15.31 149.20 15.32 145.32 15.35 M 164.86 16.91 C 163.78 20.94 161.42 24.73 161.58 29.00 C 161.60 34.67 161.60 40.34 161.60 46.01 C 163.94 47.78 165.59 51.32 168.94 51.08 C 173.98 51.67 178.62 49.42 183.31 48.00 C 183.33 45.45 183.33 42.89 183.33 40.33 C 181.88 40.35 180.43 40.36 178.99 40.37 C 178.48 42.14 177.95 43.90 177.43 45.66 C 174.43 45.67 171.43 45.67 168.43 45.65 C 168.48 37.12 168.44 28.60 168.45 20.08 C 171.40 20.08 174.35 20.09 177.30 20.07 C 177.78 21.45 178.26 22.84 178.74 24.23 C 180.13 24.24 181.52 24.25 182.91 24.26 C 183.01 22.42 183.08 20.58 183.15 18.75 C 181.77 17.38 180.38 16.02 178.99 14.67 C 174.14 14.28 169.31 14.90 164.86 16.91 M 186.04 15.36 C 186.09 16.52 186.13 17.69 186.18 18.85 C 186.77 19.02 187.95 19.36 188.54 19.53 C 188.47 28.40 188.52 37.27 188.51 46.15 C 187.91 46.32 186.71 46.67 186.10 46.85 C 186.10 47.72 186.09 49.47 186.08 50.34 C 189.95 50.36 193.82 50.36 197.69 50.34 C 197.67 49.50 197.64 47.81 197.63 46.97 C 197.10 46.75 196.05 46.32 195.52 46.10 C 195.09 37.28 195.54 28.41 195.31 19.58 C 195.89 19.38 197.04 18.98 197.62 18.79 C 197.64 17.64 197.66 16.50 197.68 15.35 C 193.80 15.32 189.92 15.31 186.04 15.36 M 231.47 15.09 C 231.45 15.92 231.40 17.59 231.38 18.43 C 231.97 18.65 233.15 19.10 233.74 19.32 C 233.71 28.25 233.72 37.18 233.74 46.11 C 233.16 46.29 232.01 46.64 231.43 46.82 C 231.43 47.70 231.42 49.46 231.42 50.35 C 235.29 50.28 239.18 50.54 243.05 50.23 C 246.17 49.52 249.17 48.37 252.24 47.46 C 252.21 44.37 252.22 41.28 252.22 38.20 C 251.48 38.22 249.99 38.28 249.24 38.31 C 248.49 40.51 247.72 42.70 246.96 44.90 C 244.84 44.99 242.72 45.06 240.61 45.10 C 240.64 36.59 240.44 28.06 240.69 19.56 C 242.78 19.14 244.03 17.04 242.77 15.14 C 239.02 14.63 235.23 15.11 231.47 15.09 Z" />
<path fill="#000000" stroke="#000000" stroke-width="0.09375" opacity="1.00" d=" M 75.07 20.09 C 78.96 20.07 82.85 20.08 86.73 20.08 C 86.74 28.60 86.69 37.12 86.76 45.64 C 82.85 45.67 78.94 45.68 75.03 45.64 C 75.13 37.12 75.07 28.60 75.07 20.09 Z" />
<path fill="#000000" stroke="#000000" stroke-width="0.09375" opacity="1.00" d=" M 211.20 37.03 C 212.76 33.01 213.51 28.65 215.65 24.88 C 215.57 28.97 215.90 33.05 217.35 36.91 C 215.30 36.93 213.24 36.96 211.20 37.03 Z" />
<path fill="#000000" stroke="#000000" stroke-width="0.09375" opacity="1.00" d=" M 1.13 217.25 C 10.14 216.18 19.24 217.25 28.22 215.86 C 36.00 217.98 44.11 215.94 52.02 216.25 C 53.59 216.27 54.84 217.36 56.22 217.97 C 59.00 217.46 61.77 216.83 64.52 216.18 C 64.95 216.68 65.82 217.68 66.25 218.18 C 75.16 217.52 84.10 216.35 93.04 217.17 C 112.02 218.18 131.01 215.49 149.98 217.13 C 175.97 218.23 201.97 216.57 227.96 216.43 C 238.67 216.56 249.37 217.25 260.05 217.98 C 266.44 218.38 272.63 216.14 279.01 216.20 C 292.67 216.18 306.34 216.20 320.00 216.20 L 320.00 218.44 C 319.70 225.85 318.35 233.36 320.00 240.71 L 320.00 242.44 C 318.84 253.69 317.18 264.88 315.63 276.08 C 311.90 277.07 308.10 277.92 304.23 277.82 C 272.46 275.74 240.65 277.95 208.90 279.24 C 194.94 279.50 180.99 281.33 167.03 280.13 C 152.72 278.88 138.36 280.19 124.03 279.47 C 104.03 279.30 84.03 279.45 64.02 279.31 C 55.73 278.88 47.62 280.82 39.35 281.00 L 32.56 281.00 C 22.00 280.00 11.39 280.24 0.80 280.22 C 0.55 270.00 0.34 259.79 0.00 249.57 L 0.00 242.54 C 0.49 234.11 0.64 225.67 1.13 217.25 M 29.49 229.34 C 25.84 239.39 22.28 249.48 18.62 259.53 C 18.24 261.32 16.02 261.18 14.69 261.91 C 14.68 262.77 14.67 264.49 14.66 265.35 C 18.42 265.35 22.18 265.36 25.94 265.34 C 25.93 264.46 25.92 262.71 25.91 261.84 C 25.31 261.66 24.12 261.31 23.53 261.13 C 24.08 259.54 24.62 257.96 25.17 256.37 C 28.09 256.34 31.01 256.35 33.93 256.38 C 34.41 257.91 34.90 259.45 35.38 260.98 C 33.50 261.71 33.89 263.71 33.76 265.34 C 37.55 265.36 41.35 265.35 45.15 265.35 C 45.14 264.48 45.13 262.73 45.13 261.86 C 44.26 261.55 43.39 261.24 42.52 260.94 C 38.85 250.42 35.27 239.86 31.60 229.34 C 31.08 229.34 30.02 229.34 29.49 229.34 M 119.96 229.16 C 116.21 239.69 112.41 250.20 108.63 260.72 C 107.46 261.10 106.29 261.48 105.12 261.86 C 105.11 262.73 105.10 264.47 105.09 265.34 C 108.86 265.36 112.63 265.35 116.40 265.35 C 116.39 264.47 116.38 262.71 116.38 261.83 C 115.77 261.65 114.56 261.29 113.96 261.11 C 114.50 259.52 115.05 257.93 115.60 256.35 C 118.51 256.36 121.41 256.36 124.32 256.35 C 124.83 257.90 125.34 259.46 125.86 261.03 C 123.93 261.69 124.36 263.72 124.21 265.34 C 128.02 265.36 131.84 265.36 135.66 265.34 C 135.63 264.46 135.56 262.70 135.53 261.82 C 134.89 261.62 133.60 261.21 132.96 261.01 C 129.81 251.80 126.57 242.62 123.46 233.39 C 122.69 231.63 122.65 228.68 119.96 229.16 M 197.66 229.35 C 193.92 239.78 190.14 250.19 186.43 260.64 C 185.25 261.05 184.07 261.45 182.89 261.86 C 182.87 262.73 182.82 264.48 182.80 265.35 C 186.59 265.35 190.38 265.36 194.17 265.35 C 194.16 264.48 194.16 262.73 194.15 261.86 C 193.54 261.67 192.31 261.30 191.69 261.11 C 192.24 259.52 192.79 257.94 193.34 256.36 C 196.25 256.35 199.16 256.35 202.08 256.36 C 202.58 257.91 203.08 259.45 203.59 261.00 C 201.66 261.68 202.20 263.75 202.00 265.33 C 205.77 265.37 209.55 265.35 213.32 265.35 C 213.32 264.46 213.31 262.68 213.31 261.79 C 212.68 261.62 211.44 261.27 210.81 261.09 C 207.00 250.55 203.50 239.89 199.75 229.32 C 199.23 229.33 198.18 229.34 197.66 229.35 M 46.76 230.06 C 46.75 230.91 46.72 232.60 46.71 233.44 C 47.30 233.68 48.48 234.15 49.08 234.38 C 49.09 243.28 49.09 252.17 49.08 261.06 C 48.46 261.24 47.23 261.59 46.61 261.76 C 46.61 262.66 46.61 264.46 46.61 265.35 C 49.88 265.35 53.14 265.35 56.40 265.35 C 56.41 264.46 56.41 262.67 56.41 261.77 C 55.84 261.60 54.69 261.25 54.12 261.08 C 54.52 253.34 53.30 245.46 54.76 237.82 C 55.47 242.87 55.52 248.01 56.41 253.05 C 57.60 257.39 59.28 261.58 60.55 265.90 C 61.20 265.90 62.52 265.90 63.17 265.90 C 66.31 256.98 68.76 247.77 72.43 239.06 C 71.69 246.42 68.91 253.55 69.77 261.06 C 68.93 261.33 68.09 261.60 67.25 261.89 C 67.28 263.04 67.30 264.19 67.33 265.35 C 71.20 265.35 75.07 265.36 78.94 265.35 C 78.96 263.43 79.26 261.11 76.65 260.90 C 76.57 252.04 76.66 243.19 76.61 234.33 C 77.24 234.10 78.50 233.64 79.13 233.42 C 79.13 232.59 79.13 230.93 79.13 230.11 C 76.18 229.87 73.21 229.89 70.27 230.15 C 68.17 236.61 65.83 242.98 63.68 249.42 C 63.09 251.13 62.70 252.98 61.48 254.38 C 61.25 251.43 61.86 248.36 60.70 245.54 C 58.92 240.39 57.17 235.23 55.42 230.07 C 52.53 230.06 49.65 230.06 46.76 230.06 M 82.34 230.08 C 82.31 231.20 82.29 232.32 82.26 233.44 C 82.85 233.66 84.03 234.09 84.62 234.31 C 84.61 243.21 84.55 252.11 84.65 261.01 C 84.07 261.23 82.90 261.65 82.31 261.86 C 82.31 262.73 82.30 264.47 82.29 265.34 C 86.17 265.26 90.07 265.58 93.93 265.20 C 96.91 264.46 99.79 263.39 102.71 262.45 C 103.90 258.28 105.91 254.28 106.09 249.87 C 104.79 248.62 103.50 247.37 102.21 246.12 C 105.50 243.18 103.22 238.12 103.86 234.24 C 102.29 232.85 100.72 231.46 99.17 230.07 C 93.56 229.85 87.95 229.90 82.34 230.08 M 139.85 231.82 C 138.67 235.48 137.51 239.15 136.35 242.82 C 137.93 244.25 139.37 245.85 141.13 247.07 C 144.10 248.29 147.24 249.02 150.29 250.01 C 150.31 253.45 150.30 256.89 150.32 260.33 C 147.73 260.33 145.15 260.33 142.57 260.33 C 142.02 258.68 141.48 257.04 140.96 255.39 C 139.54 255.37 138.12 255.34 136.70 255.33 C 136.70 257.92 136.72 260.52 136.78 263.11 C 141.72 264.48 146.79 267.15 152.02 265.74 C 153.88 264.33 155.43 262.57 157.13 260.98 C 157.13 256.97 157.13 252.96 157.13 248.95 C 155.33 247.24 153.62 245.41 151.71 243.83 C 149.12 243.32 146.43 243.68 143.80 243.61 C 143.81 240.76 143.81 237.91 143.81 235.07 C 146.17 235.07 148.53 235.08 150.89 235.12 C 151.31 236.49 151.72 237.86 152.15 239.23 C 153.58 239.23 155.02 239.23 156.45 239.24 C 156.46 237.34 156.47 235.44 156.50 233.55 C 154.59 231.88 153.01 229.02 150.05 229.62 C 146.49 229.31 143.17 230.77 139.85 231.82 M 165.16 231.86 C 164.04 235.51 162.88 239.15 161.72 242.78 C 163.24 244.22 164.66 245.78 166.36 247.01 C 169.35 248.29 172.54 249.01 175.64 250.00 C 175.66 253.44 175.64 256.87 175.69 260.31 C 173.12 260.20 170.41 260.68 167.94 260.07 C 167.25 258.54 166.79 256.92 166.26 255.34 C 164.87 255.35 163.48 255.36 162.09 255.38 C 162.13 257.95 162.13 260.52 162.12 263.09 C 167.08 264.50 172.25 267.26 177.50 265.66 C 179.26 264.24 180.81 262.57 182.45 261.02 C 182.44 256.97 182.43 252.92 182.47 248.87 C 180.61 247.12 178.76 245.36 176.90 243.61 C 174.32 243.60 171.74 243.60 169.16 243.59 C 169.19 240.75 169.20 237.92 169.19 235.08 C 171.47 235.08 173.76 235.00 176.04 235.13 C 176.73 236.42 177.10 237.86 177.59 239.24 C 179.00 239.23 180.40 239.23 181.81 239.23 C 181.80 237.30 181.80 235.36 181.79 233.43 C 180.45 232.18 179.12 230.92 177.79 229.66 C 173.42 229.19 169.21 230.31 165.16 231.86 M 214.73 230.07 C 214.73 230.90 214.73 232.57 214.73 233.40 C 215.54 233.77 216.36 234.16 217.17 234.55 C 217.04 243.39 217.15 252.23 217.11 261.07 C 216.53 261.26 215.38 261.63 214.81 261.81 C 214.80 262.70 214.80 264.47 214.80 265.36 C 219.24 265.28 223.68 265.50 228.11 265.27 C 231.29 264.63 234.32 263.45 237.40 262.48 C 238.40 259.20 239.77 256.02 240.58 252.69 C 240.86 246.77 240.56 240.84 240.71 234.92 C 239.03 233.31 237.34 231.71 235.66 230.11 C 228.69 229.83 221.70 229.86 214.73 230.07 M 250.70 231.82 C 249.55 235.87 247.16 239.70 247.34 244.02 C 247.36 249.68 247.39 255.35 247.33 261.01 C 249.01 262.62 250.69 264.23 252.34 265.87 C 258.24 266.90 263.93 265.14 269.40 263.12 C 270.46 259.72 271.91 256.43 272.67 252.95 C 272.83 246.97 272.79 240.97 272.69 234.99 C 271.44 232.84 269.17 231.41 267.43 229.64 C 261.75 229.52 255.97 229.37 250.70 231.82 M 277.55 229.93 C 277.52 230.80 277.45 232.55 277.42 233.42 C 278.01 233.65 279.20 234.11 279.79 234.34 C 279.75 243.26 279.77 252.19 279.78 261.12 C 279.21 261.29 278.06 261.63 277.49 261.80 C 277.48 262.98 277.48 264.16 277.48 265.35 C 281.36 265.35 285.25 265.36 289.13 265.34 C 289.13 264.48 289.12 262.74 289.12 261.87 C 288.50 261.69 287.25 261.32 286.63 261.14 C 286.63 256.98 286.64 252.83 286.62 248.68 C 287.96 248.68 289.31 248.68 290.65 248.69 C 290.05 254.57 293.16 259.84 294.66 265.36 C 297.56 265.35 300.47 265.35 303.38 265.35 C 303.37 264.47 303.36 262.70 303.36 261.81 C 302.72 261.65 301.43 261.34 300.79 261.18 C 299.03 256.90 297.51 252.52 295.86 248.20 C 297.40 246.73 299.30 245.53 300.50 243.76 C 300.70 240.63 300.52 237.49 300.57 234.36 C 298.80 232.93 297.42 230.80 295.23 230.02 C 289.34 229.80 283.44 230.02 277.55 229.93 Z" />
<path fill="#000000" stroke="#000000" stroke-width="0.09375" opacity="1.00" d=" M 91.16 234.37 C 93.28 234.36 95.39 234.35 97.51 234.35 C 97.48 237.54 97.48 240.72 97.53 243.91 C 95.41 243.99 93.30 244.00 91.18 243.95 C 91.21 240.75 91.21 237.56 91.16 234.37 Z" />
<path fill="#000000" stroke="#000000" stroke-width="0.09375" opacity="1.00" d=" M 223.88 234.36 C 227.20 234.35 230.53 234.35 233.86 234.37 C 233.75 242.94 233.88 251.51 233.78 260.08 C 230.48 259.94 227.18 259.91 223.87 259.93 C 223.88 251.40 223.87 242.88 223.88 234.36 Z" />
<path fill="#000000" stroke="#000000" stroke-width="0.09375" opacity="1.00" d=" M 286.62 234.35 C 288.99 234.35 291.36 234.35 293.74 234.37 C 293.70 237.55 293.70 240.74 293.72 243.93 C 291.35 243.93 288.98 243.93 286.62 243.91 C 286.64 240.72 286.63 237.53 286.62 234.35 Z" />
<path fill="#000000" stroke="#000000" stroke-width="0.09375" opacity="1.00" d=" M 254.22 235.08 C 258.11 235.08 262.00 235.08 265.89 235.08 C 265.90 243.60 265.83 252.12 265.93 260.64 C 262.01 260.68 258.10 260.67 254.18 260.64 C 254.27 252.12 254.21 243.60 254.22 235.08 Z" />
<path fill="#000000" stroke="#000000" stroke-width="0.09375" opacity="1.00" d=" M 117.09 251.94 C 118.73 248.00 119.33 243.59 121.61 239.95 C 121.42 244.03 121.85 248.09 123.27 251.95 C 121.21 251.96 119.15 251.96 117.09 251.94 Z" />
<path fill="#000000" stroke="#000000" stroke-width="0.09375" opacity="1.00" d=" M 194.82 251.91 C 196.52 247.99 197.09 243.56 199.34 239.93 C 199.17 244.01 199.62 248.06 200.97 251.93 C 198.92 251.93 196.87 251.92 194.82 251.91 Z" />
<path fill="#000000" stroke="#000000" stroke-width="0.09375" opacity="1.00" d=" M 26.65 251.95 C 28.19 247.93 29.13 243.68 31.10 239.84 C 31.05 243.95 31.40 248.05 32.83 251.93 C 30.77 251.99 28.71 251.99 26.65 251.95 Z" />
<path fill="#000000" stroke="#000000" stroke-width="0.09375" opacity="1.00" d=" M 91.17 248.37 C 93.82 248.35 96.48 248.35 99.13 248.36 C 99.13 252.21 99.12 256.06 99.15 259.91 C 96.51 260.04 93.88 260.09 91.24 260.07 C 91.18 256.17 91.22 252.27 91.17 248.37 Z" />
</svg>
