<?xml version="1.0" encoding="UTF-8" ?>
<!DOCTYPE svg PUBLIC "-//W3C//DTD SVG 1.1//EN" "http://www.w3.org/Graphics/SVG/1.1/DTD/svg11.dtd">
<svg width="320pt" height="281pt" viewBox="0 0 320 281" version="1.1" xmlns="http://www.w3.org/2000/svg">
<path fill="#ff6027" stroke="#ff6027" stroke-width="0.09375" opacity="1.00" d=" M 130.91 81.65 C 138.72 81.70 146.50 82.19 154.30 82.30 C 153.00 115.27 151.73 148.23 150.47 181.20 C 159.83 180.46 169.21 179.95 178.57 179.30 C 178.56 183.71 178.55 188.11 178.58 192.53 C 162.00 192.39 145.42 192.28 128.84 192.16 C 129.67 155.33 130.35 118.49 130.91 81.65 Z" />
<path fill="#ff6027" stroke="#ff6027" stroke-width="0.09375" opacity="1.00" d=" M 198.48 85.64 C 208.13 81.98 219.12 81.52 228.88 85.02 C 237.28 88.26 243.37 96.06 245.04 104.84 C 247.03 115.49 246.09 126.42 245.22 137.15 C 227.75 138.63 210.29 140.23 192.83 141.75 C 192.40 152.34 194.85 163.29 201.13 171.97 C 202.09 173.33 203.53 174.31 205.15 174.73 C 215.69 177.80 227.12 177.02 237.38 173.28 C 238.04 180.66 238.59 188.06 239.37 195.43 C 226.52 200.85 211.85 201.99 198.36 198.46 C 189.13 195.86 183.19 186.98 181.72 177.86 C 178.32 158.38 178.50 138.27 182.31 118.86 C 183.95 109.97 186.45 101.09 191.28 93.36 C 193.22 90.45 194.92 86.83 198.48 85.64 M 200.78 101.81 C 196.26 110.67 195.57 120.86 194.34 130.56 C 203.73 129.50 213.12 128.45 222.51 127.38 C 223.44 117.99 224.48 106.88 217.76 99.26 C 213.18 93.80 203.87 95.74 200.78 101.81 Z" />
<path fill="#ff6027" stroke="#ff6027" stroke-width="0.09375" opacity="1.00" d=" M 95.12 84.73 C 106.11 84.65 117.09 84.47 128.07 84.43 C 113.05 104.18 98.24 124.08 83.31 143.89 C 98.79 162.29 114.11 180.82 129.50 199.29 C 119.81 199.19 110.12 199.05 100.43 198.78 C 89.75 183.80 79.10 168.80 68.26 153.95 C 69.94 168.58 71.53 183.22 73.23 197.84 C 67.38 197.76 61.52 197.70 55.67 197.61 C 55.71 160.72 55.65 123.82 55.70 86.92 C 60.96 86.81 66.23 86.71 71.50 86.59 C 70.37 99.36 69.15 112.12 68.20 124.90 C 77.13 111.48 86.15 98.12 95.12 84.73 Z" />
<path fill="#ff6027" stroke="#ff6027" stroke-width="0.09375" opacity="1.00" d=" M 249.74 84.40 C 257.46 84.54 265.18 84.67 272.90 84.78 C 272.88 90.94 272.88 97.10 272.90 103.26 C 265.17 103.23 257.46 102.81 249.74 102.76 C 249.75 96.64 249.75 90.52 249.74 84.40 Z" />
<path fill="#ff6027" stroke="#ff6027" stroke-width="0.09375" opacity="1.00" d=" M 252.42 196.87 C 252.48 170.41 252.45 143.95 252.44 117.49 C 259.48 117.62 266.52 117.77 273.56 117.82 C 273.66 144.35 273.55 170.88 273.62 197.41 C 266.56 197.20 259.48 197.31 252.42 196.87 Z" />
</svg>
