<?xml version="1.0" encoding="UTF-8" standalone="no"?>
<!DOCTYPE svg PUBLIC "-//W3C//DTD SVG 1.1//EN" "http://www.w3.org/Graphics/SVG/1.1/DTD/svg11.dtd">
<svg width="100%" height="100%" viewBox="0 0 430 142" version="1.1" xmlns="http://www.w3.org/2000/svg" xmlns:xlink="http://www.w3.org/1999/xlink" xml:space="preserve" xmlns:serif="http://www.serif.com/" style="fill-rule:evenodd;clip-rule:evenodd;stroke-linejoin:round;stroke-miterlimit:2;">
    <g id="Background" transform="matrix(1.365407,0,0,1.684336,-3.951195,-4.726224)">
        <path d="M292.5,6.093C302.396,6.11 303.677,4.232 310.279,11.694C312.546,14.257 306.413,37.43 308.815,40.246C310.378,42.08 314.254,44.773 313.005,46.148C309.471,50.041 307.843,49.478 308.293,53.523C310.96,77.514 310.811,77.868 309.35,79.329C304.668,84.014 302.5,82.972 262.499,83.113C14.092,83.985 13.848,83.855 12.868,83.037C5.308,76.734 7.611,75.281 7.998,65.516C8.461,53.855 10.266,53.191 6.665,47.4C4.532,43.97 9.853,44.658 9.835,38.497C9.812,30.889 7.245,14.304 9.691,11.686C17.933,2.863 19.399,5.17 31.501,5.181C89.698,5.236 190.375,6.096 292.5,6.093Z" style="fill:rgb(21,20,17);fill-opacity:0.84;"/>
    </g>
</svg>
   </g>
</svg>