<?xml version="1.0" encoding="UTF-8" standalone="no"?>
<!DOCTYPE svg PUBLIC "-//W3C//DTD SVG 1.1//EN" "http://www.w3.org/Graphics/SVG/1.1/DTD/svg11.dtd">
<svg width="100%" height="100%" viewBox="0 0 430 142" version="1.1" xmlns="http://www.w3.org/2000/svg" xmlns:xlink="http://www.w3.org/1999/xlink" xml:space="preserve" xmlns:serif="http://www.serif.com/" style="fill-rule:evenodd;clip-rule:evenodd;stroke-linejoin:round;stroke-miterlimit:2;">
    <g id="Background" transform="matrix(1.365407,0,0,1.684336,-3.951195,-4.726224)">
        <path d="M79.497,2.868C303.773,3.229 304.213,2.793 306.46,4.551C312.867,9.564 314.633,9.433 313.659,17.52C311.266,37.383 311.549,38.923 312.82,40.201C316.566,43.973 319.312,44.769 315.309,48.276C309.371,53.478 311.642,54.681 312.137,62.525C313.204,79.418 314.155,79.961 312.287,81.224C303.421,87.221 302.742,86.124 272.5,86.131C91.089,86.17 14.157,87.601 11.829,86.033C0.678,78.524 4.551,75.893 5.157,62.486C5.648,51.633 5.656,51.502 3.763,48.35C0.584,43.061 7.162,43.703 7.017,37.511C6.81,28.674 4.509,12.989 6.734,10.714C13.237,4.062 13.176,2.85 22.5,2.815C31.648,2.78 74.938,2.86 79.497,2.868ZM292.5,6.093C302.396,6.11 303.677,4.232 310.279,11.694C312.546,14.257 306.413,37.43 308.815,40.246C310.378,42.08 314.254,44.773 313.005,46.148C309.471,50.041 307.843,49.478 308.293,53.523C310.96,77.514 310.811,77.868 309.35,79.329C304.668,84.014 302.5,82.972 262.499,83.113C14.092,83.985 13.848,83.855 12.868,83.037C5.308,76.734 7.611,75.281 7.998,65.516C8.461,53.855 10.266,53.191 6.665,47.4C4.532,43.97 9.853,44.658 9.835,38.497C9.812,30.889 7.245,14.304 9.691,11.686C17.933,2.863 19.399,5.17 31.501,5.181C89.698,5.236 190.375,6.096 292.5,6.093Z" style="fill:rgb(158,157,157);fill-opacity:0.99;"/>
    </g>
</svg>
