<?xml version="1.0" encoding="UTF-8" standalone="no"?>
<!DOCTYPE svg PUBLIC "-//W3C//DTD SVG 1.1//EN" "http://www.w3.org/Graphics/SVG/1.1/DTD/svg11.dtd"><svg
    xmlns="http://www.w3.org/2000/svg" width="24" height="24" viewBox="0 0 75 75" fill="none" stroke="currentColor"
    stroke-width="2" stroke-linecap="round" stroke-linejoin="round" data-lucide="file-text" aria-hidden="true"
    class="lucide lucide-file-text">
    <g>
        <path
            d="M11.255,7.619c-4.055,2.028 -5.809,9.368 -5.845,10.287c-0.135,3.518 0.013,4.808 0.584,10.521c0.098,0.975 0.271,17.258 3.039,22.795c0.185,0.37 2.42,7.914 4.793,10.287c1.348,1.348 2.303,3.86 5.728,6.429c3.615,2.711 8.78,2.995 11.923,3.624c7.394,1.479 21.98,-2.575 25.25,-5.845c1.719,-1.719 4.61,-0.174 5.845,-10.053c0.253,-2.026 1.025,-3.569 1.169,-3.858c1.746,-3.492 2.274,-14.875 4.676,-26.886c1.282,-6.411 1.538,-7.425 -1.169,-15.547c-0.944,-2.833 -9.173,-4.762 -12.742,-6.546c-4.697,-2.349 -16.491,0.121 -19.756,1.753c-0.745,0.372 -13.213,2.198 -13.911,2.338c-3.149,0.63 -9.086,0.202 -9.586,0.701Z"
            style="fill:none;stroke:#fff;stroke-width:3.75px;" />
        <path
            d="M5.746,17.643c3.548,0.71 15.99,5.428 16.585,6.617c0.055,0.11 0.206,-0.075 1.216,0.935c1.635,1.635 7.984,-1.625 8.51,-2.151c1.45,-1.45 4.789,-2.563 5.237,-2.712c0.501,-0.167 2.13,-1.94 6.266,-0.561c2.383,0.794 11.326,2.234 17.02,-3.46c3.249,-3.249 5.675,-5.331 6.393,-7.484"
            style="fill:none;stroke:#fff;stroke-width:2.08px;" />
        <path
            d="M10.735,15.112c2.368,0 3.561,0.097 5.611,1.122c1.837,0.918 1.52,2.343 5.705,3.18c2.288,0.458 3.299,2.232 8.136,-0.187c2.295,-1.147 2.019,-1.571 4.302,-2.712c5.522,-2.761 18.297,2.276 22.07,-1.496c4.105,-4.105 5.063,-4.513 4.593,-4.58"
            style="fill:none;stroke:#fff;stroke-width:2.08px;" />
        <path
            d="M16.891,33.142c-0.725,0.362 -1.374,0.422 -0.673,1.122c0.494,0.494 -0.571,0.734 -1.047,0.973c-0.253,0.126 -1.719,0.936 -0.748,1.421c1.861,0.93 5.532,-0.602 4.115,-2.02c-0.31,-0.31 -0.92,-0.717 -1.122,-1.122"
            style="fill:none;stroke:#fff;stroke-width:0.83px;" />
        <path
            d="M39.634,32.394c0.045,0.089 -0.045,0.21 0,0.299c0.022,0.045 0.144,-0.05 0.15,0c0.05,0.446 -0.05,0.901 0,1.347c-0.056,-0.841 0.224,-1.048 -0.524,-1.421c-0.09,-0.045 -0.363,-0.071 -0.599,-0.15c-0.793,-0.264 0.218,-0.075 1.047,-0.075"
            style="fill:none;stroke:#fff;stroke-width:1.25px;" />
        <path d="M39.41,24.314c0.064,0.573 -0.045,0.658 0.224,0.748c0.074,0.025 0.196,0.121 0.224,0.15"
            style="fill:none;stroke:#fff;stroke-width:2.08px;" />
        <path d="M48.761,24.763c0.602,0.301 0.61,0.536 0.823,0.748c0.877,0.877 -0.624,1.148 -0.673,1.197"
            style="fill:none;stroke:#fff;stroke-width:1.25px;" />
        <path d="M55.046,38.379c-0.041,0.041 -0.343,0.536 -0.15,0.15c0.086,-0.173 0.064,-0.17 0.299,-1.347"
            style="fill:none;stroke:#fff;stroke-width:2.08px;" />
        <path
            d="M26.542,57.307c0.681,-0.34 0.822,0.113 2.394,-0.673c0.651,-0.325 0.664,-0.435 0.673,-0.374c0.041,0.266 -0.184,0.264 0.075,3.367c0.106,1.267 -0.435,1.03 -1.646,1.272c-1.247,0.249 -1.386,0.319 -1.496,0.374"
            style="fill:none;stroke:#fff;stroke-width:0.83px;" />
        <path d="M40.906,60.674c0.195,0.195 0.556,0.236 0.898,0.748c0.837,1.256 0.533,1.954 0.748,2.17"
            style="fill:none;stroke:#fff;stroke-width:1.25px;" />
        <path
            d="M10.735,15.112c1.125,-2.25 4.94,-5.195 5.985,-5.237c3.595,-0.144 9.552,1.072 14.215,-0.094c4.061,-1.015 5.024,1.63 11.877,-0.655c1.608,-0.536 8.282,-4.062 11.783,-0.561c0.228,0.228 2.042,1.179 3.273,1.59c1.721,0.574 1.731,0.281 3.554,0.281"
            style="fill:none;stroke:#fff;stroke-width:2.08px;" />
    </g>
</svg>