<?xml version="1.0" encoding="UTF-8" ?>
<!DOCTYPE svg PUBLIC "-//W3C//DTD SVG 1.1//EN" "http://www.w3.org/Graphics/SVG/1.1/DTD/svg11.dtd">
<svg width="320pt" height="320pt" viewBox="0 0 320 320" version="1.1" xmlns="http://www.w3.org/2000/svg">
<path fill="#000000" stroke="#000000" stroke-width="0.09375" opacity="1.00" d=" M 0.00 0.00 L 320.00 0.00 L 320.00 70.28 C 316.40 69.59 312.71 69.25 309.05 69.67 C 301.72 70.44 294.36 70.82 286.99 70.82 C 256.34 70.85 225.69 70.81 195.04 70.84 C 187.42 70.79 179.85 73.14 172.24 71.87 C 161.57 70.03 150.71 71.11 139.95 70.83 C 134.56 70.94 128.90 70.05 123.84 72.39 C 120.14 71.94 116.47 71.22 112.85 70.37 C 105.36 68.45 97.60 69.93 89.98 69.82 C 60.00 71.14 30.00 70.74 0.00 70.83 L 0.00 0.00 M 78.94 21.06 C 77.71 24.99 75.52 28.78 75.79 33.02 C 75.87 37.80 75.70 42.59 75.87 47.37 C 77.04 49.39 79.10 50.72 80.74 52.34 C 86.16 52.88 91.40 51.55 96.41 49.58 C 97.38 46.38 98.82 43.30 99.40 40.00 C 99.58 34.57 99.35 29.14 99.50 23.71 C 97.90 22.18 96.29 20.67 94.67 19.16 C 89.35 18.98 83.91 18.83 78.94 21.06 M 103.93 19.32 C 103.21 22.27 106.98 23.16 106.29 25.98 C 106.28 33.35 106.27 40.72 106.28 48.09 C 105.63 48.28 104.35 48.66 103.71 48.85 C 103.84 49.61 104.11 51.14 104.24 51.90 C 107.76 52.27 111.30 52.04 114.83 52.08 C 114.89 50.21 114.91 48.24 112.63 47.75 C 112.60 43.98 112.61 40.20 112.61 36.43 C 114.69 36.48 117.12 36.15 117.67 38.77 C 118.75 38.76 119.84 38.75 120.93 38.74 C 120.90 35.73 120.89 32.72 120.90 29.71 C 119.74 29.72 118.59 29.73 117.44 29.73 C 117.12 30.56 116.79 31.39 116.47 32.22 C 115.51 32.22 113.57 32.22 112.61 32.21 C 112.61 29.30 112.61 26.38 112.60 23.46 C 114.57 23.47 116.54 23.48 118.51 23.49 C 118.76 26.46 121.44 26.11 123.63 26.23 C 123.64 24.98 123.64 23.73 123.63 22.48 C 122.44 21.42 121.34 20.24 120.00 19.36 C 114.65 19.11 109.28 19.27 103.93 19.32 M 125.92 19.27 C 125.91 20.05 125.88 21.61 125.86 22.39 C 126.43 22.62 127.57 23.10 128.14 23.34 C 128.12 31.59 128.13 39.83 128.13 48.08 C 127.55 48.25 126.38 48.59 125.80 48.76 C 125.78 49.80 125.76 50.84 125.74 51.88 C 129.33 52.11 132.93 52.11 136.53 52.09 C 136.54 51.34 136.56 49.83 136.57 49.07 C 136.08 48.77 135.09 48.15 134.59 47.85 C 134.21 44.10 134.53 40.32 134.41 36.56 C 135.41 36.55 137.40 36.55 138.40 36.54 C 138.63 37.10 139.08 38.22 139.30 38.78 C 140.46 38.77 141.61 38.75 142.77 38.73 C 142.74 35.74 142.74 32.74 142.76 29.74 C 141.60 29.73 140.45 29.72 139.29 29.70 C 138.95 30.54 138.62 31.38 138.29 32.22 C 137.32 32.22 135.39 32.21 134.42 32.21 C 134.44 29.30 134.43 26.39 134.41 23.48 C 136.43 23.48 138.45 23.47 140.48 23.46 C 140.71 24.10 141.16 25.38 141.39 26.02 C 142.73 26.06 144.07 26.11 145.41 26.15 C 145.44 25.28 145.51 23.55 145.55 22.68 C 144.37 21.53 143.18 20.40 142.00 19.26 C 136.64 19.26 131.28 19.24 125.92 19.27 M 147.63 19.31 C 147.62 20.36 147.60 21.42 147.59 22.47 C 148.16 22.66 149.29 23.04 149.86 23.23 C 149.87 31.52 149.84 39.81 149.87 48.10 C 149.30 48.27 148.17 48.61 147.60 48.77 C 147.62 49.60 147.65 51.26 147.67 52.09 C 151.23 52.08 154.79 52.08 158.35 52.09 C 158.36 51.26 158.40 49.61 158.42 48.78 C 157.88 48.60 156.79 48.26 156.25 48.09 C 156.26 39.82 156.27 31.56 156.24 23.30 C 156.78 23.08 157.88 22.65 158.43 22.43 C 158.41 21.39 158.39 20.35 158.38 19.31 C 154.80 19.31 151.22 19.31 147.63 19.31 M 165.86 21.03 C 164.82 23.98 163.59 26.86 162.81 29.88 C 162.58 35.71 162.70 41.57 162.75 47.41 C 164.59 49.58 166.70 52.77 169.94 52.35 C 174.46 52.81 178.64 50.91 182.86 49.63 C 182.87 47.31 182.86 45.00 182.88 42.69 C 181.55 42.70 180.22 42.72 178.90 42.73 C 178.44 44.11 177.97 45.49 177.51 46.88 C 174.73 47.04 171.94 47.12 169.16 47.11 C 169.10 39.37 169.09 31.63 169.16 23.89 C 171.92 23.94 174.68 24.05 177.44 24.16 C 177.82 25.33 178.21 26.49 178.59 27.66 C 179.96 27.66 181.33 27.66 182.70 27.65 C 182.64 25.95 182.74 24.23 182.46 22.55 C 181.40 21.32 180.17 20.25 178.99 19.13 C 174.50 18.81 170.04 19.32 165.86 21.03 M 185.57 19.31 C 185.55 20.36 185.54 21.40 185.52 22.45 C 186.10 22.66 187.25 23.06 187.82 23.27 C 187.81 31.54 187.80 39.82 187.82 48.10 C 187.25 48.27 186.11 48.60 185.54 48.77 C 185.55 49.56 185.57 51.13 185.58 51.92 C 189.13 52.12 192.69 52.10 196.26 52.09 C 196.27 51.26 196.29 49.60 196.31 48.77 C 195.78 48.60 194.74 48.26 194.21 48.10 C 194.23 39.82 194.23 31.54 194.22 23.27 C 194.75 23.06 195.83 22.65 196.37 22.44 C 196.36 21.40 196.34 20.35 196.33 19.31 C 192.74 19.31 189.16 19.31 185.57 19.31 M 210.63 20.89 C 207.53 29.48 204.53 38.11 201.37 46.68 C 200.91 48.16 198.98 48.19 197.82 48.92 C 197.81 49.68 197.80 51.19 197.79 51.95 C 201.27 52.14 204.77 52.14 208.26 51.95 C 208.25 50.89 208.24 49.83 208.23 48.77 C 207.67 48.60 206.55 48.26 205.99 48.09 C 206.49 46.62 206.99 45.15 207.49 43.69 C 210.21 43.69 212.94 43.69 215.66 43.69 C 216.07 45.03 216.49 46.36 216.89 47.70 C 215.89 48.97 215.53 50.49 215.45 52.08 C 218.99 52.09 222.53 52.08 226.07 52.09 C 226.08 51.24 226.09 49.55 226.10 48.70 C 225.51 48.55 224.34 48.24 223.76 48.08 C 220.11 38.04 216.94 27.84 213.17 17.85 C 211.81 18.42 210.96 19.44 210.63 20.89 M 227.56 19.25 C 227.54 20.32 227.52 21.38 227.51 22.44 C 228.05 22.65 229.15 23.06 229.70 23.27 C 229.68 31.54 229.68 39.81 229.69 48.09 C 229.16 48.26 228.08 48.60 227.55 48.77 C 227.57 49.60 227.61 51.26 227.63 52.09 C 234.20 52.49 240.78 51.95 246.89 49.34 C 246.85 46.44 246.85 43.54 246.83 40.64 C 245.94 40.68 245.04 40.73 244.15 40.77 C 243.43 42.81 242.82 44.89 241.87 46.83 C 239.97 47.12 238.05 47.10 236.14 47.15 C 236.05 39.17 236.12 31.20 236.10 23.23 C 236.67 23.03 237.80 22.65 238.36 22.46 C 238.35 21.39 238.34 20.32 238.33 19.26 C 234.74 19.26 231.15 19.26 227.56 19.25 Z" />
<path fill="#000000" stroke="#000000" stroke-width="0.09375" opacity="1.00" d=" M 82.23 23.91 C 85.87 24.08 89.50 24.09 93.14 24.08 C 93.14 31.69 93.13 39.31 93.14 46.92 C 89.51 47.13 85.87 47.10 82.23 47.09 C 82.18 39.36 82.18 31.64 82.23 23.91 Z" />
<path fill="#000000" stroke="#000000" stroke-width="0.09375" opacity="1.00" d=" M 212.97 28.08 C 213.10 31.89 213.28 35.72 214.63 39.34 C 212.74 39.33 210.86 39.32 208.98 39.31 C 210.30 35.56 211.38 31.72 212.97 28.08 Z" />
<path fill="#000000" stroke="#000000" stroke-width="0.09375" opacity="1.00" d=" M 10.04 230.45 C 16.69 229.51 23.32 231.25 29.98 230.68 C 35.50 230.71 41.58 228.78 46.58 231.97 C 49.52 231.43 52.44 230.79 55.35 230.13 C 55.76 230.66 56.57 231.72 56.97 232.25 C 65.96 231.56 74.98 230.41 84.00 231.10 C 100.66 232.15 117.32 230.33 133.99 230.58 C 142.67 230.82 151.32 231.64 160.01 231.57 C 180.67 231.44 201.33 230.92 221.99 230.41 C 235.03 230.25 248.06 231.10 261.06 232.00 C 268.12 232.55 274.95 230.09 281.99 230.16 C 294.66 230.17 307.33 230.23 320.00 230.27 L 320.00 320.00 L 0.00 320.00 L 0.00 230.44 C 3.34 230.67 6.70 230.79 10.04 230.45 M 39.18 255.87 C 35.87 265.05 32.60 274.25 29.31 283.44 C 28.23 283.80 27.14 284.17 26.06 284.54 C 25.99 285.60 25.93 286.67 25.86 287.74 C 29.40 287.80 32.94 287.78 36.49 287.78 C 36.48 286.80 36.48 285.82 36.47 284.85 C 33.20 284.31 35.17 281.45 35.65 279.47 C 38.40 279.47 41.15 279.47 43.90 279.48 C 44.30 280.74 44.68 282.00 45.06 283.27 C 44.35 284.67 43.90 286.17 43.54 287.70 C 47.20 287.82 50.86 287.79 54.52 287.74 C 54.84 285.51 53.78 284.07 51.78 283.34 C 48.30 273.48 45.13 263.51 41.45 253.71 C 40.46 254.17 39.36 254.63 39.18 255.87 M 124.24 254.27 C 120.50 263.90 117.23 273.71 113.70 283.42 C 112.57 283.81 111.44 284.21 110.31 284.61 C 110.33 285.66 110.36 286.73 110.39 287.79 C 113.92 287.77 117.46 287.81 120.99 287.73 C 121.00 285.90 120.86 284.05 118.72 283.56 C 119.19 282.19 119.66 280.83 120.12 279.48 C 122.84 279.47 125.56 279.47 128.28 279.47 C 128.70 280.82 129.12 282.18 129.54 283.54 C 129.16 284.58 128.41 286.66 128.03 287.70 C 131.68 287.82 135.33 287.81 138.98 287.70 C 139.16 285.54 138.25 284.05 136.19 283.43 C 132.74 273.68 129.62 263.80 125.98 254.13 C 125.54 254.17 124.68 254.24 124.24 254.27 M 196.33 254.21 C 192.85 263.91 189.39 273.61 185.91 283.30 C 183.60 283.88 181.76 284.99 182.38 287.74 C 186.02 287.80 189.66 287.81 193.30 287.72 C 193.30 285.85 192.90 284.15 190.94 283.49 C 191.39 282.15 191.84 280.81 192.29 279.47 C 195.05 279.47 197.80 279.47 200.56 279.47 C 202.14 282.29 200.98 284.92 200.17 287.71 C 203.75 287.82 207.34 287.77 210.92 287.77 C 210.93 286.71 210.94 285.65 210.95 284.59 C 210.33 284.36 209.07 283.90 208.45 283.67 C 205.06 273.84 201.69 264.01 198.31 254.18 C 197.82 254.19 196.82 254.20 196.33 254.21 M 55.91 255.10 C 55.91 255.90 55.90 257.49 55.89 258.28 C 56.45 258.46 57.57 258.81 58.13 258.98 C 58.04 267.04 58.32 275.12 58.00 283.17 C 56.43 284.29 55.52 285.78 55.61 287.78 C 58.77 287.85 61.93 287.84 65.09 287.76 C 65.04 285.95 64.95 284.04 62.81 283.57 C 63.01 276.45 62.31 269.27 63.09 262.19 C 64.51 267.83 63.76 273.85 65.78 279.36 C 66.80 282.43 67.84 285.49 68.81 288.58 C 69.39 288.62 70.55 288.70 71.13 288.74 C 74.15 280.32 76.40 271.61 79.80 263.34 C 79.50 269.30 76.94 274.97 77.38 281.00 C 77.77 282.93 77.10 284.36 75.09 284.81 C 75.10 285.81 75.12 286.81 75.14 287.82 C 78.70 287.82 82.27 287.82 85.83 287.82 C 85.85 286.83 85.86 285.83 85.88 284.85 C 85.37 284.53 84.37 283.91 83.86 283.59 C 83.53 275.40 83.82 267.18 83.73 258.98 C 84.33 258.80 85.52 258.43 86.11 258.25 C 86.10 257.46 86.09 255.90 86.08 255.12 C 83.33 255.08 80.58 255.07 77.83 255.07 C 75.09 262.77 72.71 270.60 69.74 278.21 C 70.35 270.04 66.18 262.74 64.03 255.08 C 61.32 255.07 58.62 255.08 55.91 255.10 M 88.88 255.11 C 88.88 255.90 88.88 257.49 88.87 258.28 C 89.44 258.46 90.56 258.80 91.12 258.98 C 91.12 266.33 91.13 273.69 91.14 281.05 C 91.76 283.86 88.10 284.81 88.68 287.73 C 92.20 287.76 95.73 287.91 99.26 287.70 C 102.23 287.18 105.03 286.01 107.91 285.16 C 109.08 281.28 110.95 277.53 111.02 273.41 C 109.88 272.37 108.75 271.33 107.62 270.30 C 110.26 267.23 108.69 262.93 109.09 259.27 C 107.63 257.88 106.17 256.49 104.72 255.11 C 99.44 255.06 94.16 255.06 88.88 255.11 M 142.49 256.72 C 141.41 260.08 140.32 263.45 139.24 266.81 C 142.46 270.90 147.50 272.06 152.25 273.42 C 152.23 276.54 152.23 279.66 152.24 282.79 C 149.83 282.78 147.42 282.78 145.02 282.77 C 144.51 281.33 144.00 279.91 143.49 278.48 C 142.51 278.49 140.55 278.49 139.57 278.50 C 139.58 280.83 139.59 283.16 139.60 285.49 C 144.06 286.91 148.58 288.84 153.38 288.16 C 155.35 286.95 156.85 285.14 158.55 283.59 C 158.53 279.87 158.53 276.15 158.55 272.43 C 156.78 270.80 155.19 268.95 153.18 267.62 C 150.85 267.46 148.51 267.55 146.18 267.55 C 146.21 264.97 146.22 262.39 146.22 259.82 C 148.34 259.81 150.47 259.81 152.60 259.79 C 153.07 261.00 153.53 262.23 154.00 263.46 C 155.31 263.45 156.62 263.44 157.94 263.44 C 157.91 261.66 157.89 259.88 157.88 258.10 C 156.63 256.96 155.38 255.81 154.14 254.67 C 150.12 254.34 146.23 255.33 142.49 256.72 M 166.05 256.77 C 165.02 260.12 163.93 263.45 162.84 266.77 C 166.00 270.93 171.07 272.05 175.82 273.37 C 175.81 276.50 175.81 279.64 175.83 282.78 C 173.43 282.78 171.03 282.78 168.64 282.78 C 168.12 281.35 167.61 279.92 167.11 278.50 C 165.80 278.49 164.50 278.49 163.20 278.49 C 163.22 280.82 163.21 283.15 163.19 285.48 C 167.72 287.01 172.33 288.70 177.20 288.25 C 178.86 286.73 180.50 285.21 182.14 283.69 C 182.15 280.03 182.30 276.37 182.10 272.72 C 180.78 270.69 178.75 269.26 177.06 267.57 C 174.63 267.56 172.20 267.55 169.77 267.55 C 169.78 264.97 169.78 262.39 169.78 259.81 C 171.95 259.81 174.11 259.81 176.28 259.81 C 176.71 261.02 177.14 262.24 177.57 263.46 C 178.58 263.45 180.60 263.45 181.60 263.44 C 181.58 261.69 181.56 259.94 181.54 258.20 C 180.29 257.04 179.05 255.88 177.82 254.71 C 173.75 254.29 169.82 255.33 166.05 256.77 M 212.41 255.07 C 212.40 256.04 212.40 257.01 212.40 257.98 C 212.91 258.32 213.93 258.98 214.44 259.31 C 214.67 267.47 214.45 275.65 214.53 283.81 C 213.99 284.02 212.90 284.43 212.35 284.63 C 212.38 285.68 212.40 286.73 212.43 287.79 C 216.63 287.70 220.85 287.95 225.04 287.67 C 227.90 287.11 230.63 286.01 233.42 285.18 C 234.60 281.17 236.83 277.31 236.55 273.01 C 236.53 268.53 236.51 264.05 236.54 259.57 C 234.95 258.07 233.37 256.58 231.78 255.09 C 225.32 255.06 218.86 255.09 212.41 255.07 M 245.68 256.85 C 244.65 259.89 243.26 262.83 242.62 265.99 C 242.49 271.74 242.52 277.50 242.60 283.25 C 243.83 285.04 245.51 286.51 247.25 287.79 C 252.62 289.17 258.05 287.15 263.10 285.39 C 264.09 282.32 265.36 279.33 266.08 276.18 C 266.40 270.63 266.07 265.06 266.24 259.51 C 264.58 257.91 262.89 256.36 261.17 254.83 C 255.91 254.64 250.59 254.71 245.68 256.85 M 270.71 255.07 C 270.70 255.89 270.68 257.51 270.67 258.33 C 271.21 258.48 272.28 258.78 272.82 258.93 C 272.80 267.24 272.84 275.55 272.79 283.86 C 272.26 284.04 271.19 284.40 270.66 284.58 C 270.67 285.64 270.69 286.72 270.71 287.79 C 274.29 287.77 277.87 287.77 281.46 287.79 C 281.47 286.71 281.49 285.64 281.51 284.57 C 280.94 284.40 279.81 284.07 279.25 283.90 C 279.21 280.02 279.23 276.13 279.20 272.25 C 280.40 272.23 281.60 272.22 282.80 272.21 C 282.58 277.69 285.17 282.64 286.65 287.77 C 289.34 287.77 292.04 287.78 294.74 287.79 C 294.76 286.73 294.78 285.68 294.81 284.63 C 294.17 284.40 292.89 283.94 292.25 283.71 C 290.75 279.74 289.32 275.76 287.80 271.81 C 289.25 270.48 290.71 269.15 292.18 267.82 C 292.17 265.11 292.29 262.39 292.12 259.68 C 291.18 257.80 289.28 256.59 287.86 255.09 C 282.14 255.07 276.42 255.09 270.71 255.07 Z" />
<path fill="#000000" stroke="#000000" stroke-width="0.09375" opacity="1.00" d=" M 97.18 259.28 C 99.16 259.27 101.14 259.28 103.13 259.29 C 103.12 262.13 103.12 264.96 103.12 267.80 C 101.14 267.81 99.16 267.82 97.19 267.82 C 97.20 264.97 97.20 262.12 97.18 259.28 Z" />
<path fill="#000000" stroke="#000000" stroke-width="0.09375" opacity="1.00" d=" M 220.86 259.28 C 223.97 259.27 227.09 259.27 230.21 259.27 C 230.20 267.11 230.20 274.95 230.21 282.78 C 227.09 282.78 223.97 282.78 220.86 282.77 C 220.86 274.94 220.86 267.11 220.86 259.28 Z" />
<path fill="#000000" stroke="#000000" stroke-width="0.09375" opacity="1.00" d=" M 279.20 259.28 C 281.40 259.28 283.60 259.28 285.80 259.28 C 285.77 262.11 285.77 264.94 285.79 267.78 C 283.59 267.78 281.40 267.78 279.21 267.78 C 279.22 264.94 279.22 262.11 279.20 259.28 Z" />
<path fill="#000000" stroke="#000000" stroke-width="0.09375" opacity="1.00" d=" M 248.86 259.77 C 252.50 259.76 256.15 259.76 259.81 259.76 C 259.79 267.43 259.78 275.10 259.82 282.77 C 256.16 282.78 252.51 282.78 248.85 282.77 C 248.86 275.10 248.86 267.44 248.86 259.77 Z" />
<path fill="#000000" stroke="#000000" stroke-width="0.09375" opacity="1.00" d=" M 37.24 275.14 C 38.56 271.37 39.59 267.48 41.23 263.82 C 41.27 267.66 41.56 271.49 42.85 275.15 C 40.98 275.14 39.11 275.14 37.24 275.14 Z" />
<path fill="#000000" stroke="#000000" stroke-width="0.09375" opacity="1.00" d=" M 121.60 275.14 C 122.95 271.36 123.96 267.46 125.60 263.79 C 125.61 267.64 125.97 271.48 127.26 275.14 C 125.37 275.14 123.49 275.14 121.60 275.14 Z" />
<path fill="#000000" stroke="#000000" stroke-width="0.09375" opacity="1.00" d=" M 193.81 275.14 C 195.09 271.37 196.20 267.54 197.66 263.83 C 197.91 267.65 198.18 271.49 199.42 275.15 C 197.55 275.14 195.68 275.14 193.81 275.14 Z" />
<path fill="#000000" stroke="#000000" stroke-width="0.09375" opacity="1.00" d=" M 97.18 272.20 C 99.65 272.19 102.11 272.19 104.58 272.20 C 104.56 275.65 104.56 279.10 104.59 282.55 C 102.12 282.55 99.64 282.55 97.17 282.54 C 97.21 279.09 97.21 275.64 97.18 272.20 Z" />
</svg>
