<?xml version="1.0" encoding="UTF-8" ?>
<!DOCTYPE svg PUBLIC "-//W3C//DTD SVG 1.1//EN" "http://www.w3.org/Graphics/SVG/1.1/DTD/svg11.dtd">
<svg width="320pt" height="320pt" viewBox="0 0 320 320" version="1.1" xmlns="http://www.w3.org/2000/svg">
<path fill="#ffffff" stroke="#ffffff" stroke-width="0.09375" opacity="1.00" d=" M 78.94 21.06 C 83.91 18.83 89.35 18.98 94.67 19.16 C 96.29 20.67 97.90 22.18 99.50 23.71 C 99.35 29.14 99.58 34.57 99.40 40.00 C 98.82 43.30 97.38 46.38 96.41 49.58 C 91.40 51.55 86.16 52.88 80.74 52.34 C 79.10 50.72 77.04 49.39 75.87 47.37 C 75.70 42.59 75.87 37.80 75.79 33.02 C 75.52 28.78 77.71 24.99 78.94 21.06 M 82.23 23.91 C 82.18 31.64 82.18 39.36 82.23 47.09 C 85.87 47.10 89.51 47.13 93.14 46.92 C 93.13 39.31 93.14 31.69 93.14 24.08 C 89.50 24.09 85.87 24.08 82.23 23.91 Z" />
<path fill="#ffffff" stroke="#ffffff" stroke-width="0.09375" opacity="1.00" d=" M 103.93 19.32 C 109.28 19.27 114.65 19.11 120.00 19.36 C 121.34 20.24 122.44 21.42 123.63 22.48 C 123.64 23.73 123.64 24.98 123.63 26.23 C 121.44 26.11 118.76 26.46 118.51 23.49 C 116.54 23.48 114.57 23.47 112.60 23.46 C 112.61 26.38 112.61 29.30 112.61 32.21 C 113.57 32.22 115.51 32.22 116.47 32.22 C 116.79 31.39 117.12 30.56 117.44 29.73 C 118.59 29.73 119.74 29.72 120.90 29.71 C 120.89 32.72 120.90 35.73 120.93 38.74 C 119.84 38.75 118.75 38.76 117.67 38.77 C 117.12 36.15 114.69 36.48 112.61 36.43 C 112.61 40.20 112.60 43.98 112.63 47.75 C 114.91 48.24 114.89 50.21 114.83 52.08 C 111.30 52.04 107.76 52.27 104.24 51.90 C 104.11 51.14 103.84 49.61 103.71 48.85 C 104.35 48.66 105.63 48.28 106.28 48.09 C 106.27 40.72 106.28 33.35 106.29 25.98 C 106.98 23.16 103.21 22.27 103.93 19.32 Z" />
<path fill="#ffffff" stroke="#ffffff" stroke-width="0.09375" opacity="1.00" d=" M 125.92 19.27 C 131.28 19.24 136.64 19.26 142.00 19.26 C 143.18 20.40 144.37 21.53 145.55 22.68 C 145.51 23.55 145.44 25.28 145.41 26.15 C 144.07 26.11 142.73 26.06 141.39 26.02 C 141.16 25.38 140.71 24.10 140.48 23.46 C 138.45 23.47 136.43 23.48 134.41 23.48 C 134.43 26.39 134.44 29.30 134.42 32.21 C 135.39 32.21 137.32 32.22 138.29 32.22 C 138.62 31.38 138.95 30.54 139.29 29.70 C 140.45 29.72 141.60 29.73 142.76 29.74 C 142.74 32.74 142.74 35.74 142.77 38.73 C 141.61 38.75 140.46 38.77 139.30 38.78 C 139.08 38.22 138.63 37.10 138.40 36.54 C 137.40 36.55 135.41 36.55 134.41 36.56 C 134.53 40.32 134.21 44.10 134.59 47.85 C 135.09 48.15 136.08 48.77 136.57 49.07 C 136.56 49.83 136.54 51.34 136.53 52.09 C 132.93 52.11 129.33 52.11 125.74 51.88 C 125.76 50.84 125.78 49.80 125.80 48.76 C 126.38 48.59 127.55 48.25 128.13 48.08 C 128.13 39.83 128.12 31.59 128.14 23.34 C 127.57 23.10 126.43 22.62 125.86 22.39 C 125.88 21.61 125.91 20.05 125.92 19.27 Z" />
<path fill="#ffffff" stroke="#ffffff" stroke-width="0.09375" opacity="1.00" d=" M 147.63 19.31 C 151.22 19.31 154.80 19.31 158.38 19.31 C 158.39 20.35 158.41 21.39 158.43 22.43 C 157.88 22.65 156.78 23.08 156.24 23.30 C 156.27 31.56 156.26 39.82 156.25 48.09 C 156.79 48.26 157.88 48.60 158.42 48.78 C 158.40 49.61 158.36 51.26 158.35 52.09 C 154.79 52.08 151.23 52.08 147.67 52.09 C 147.65 51.26 147.62 49.60 147.60 48.77 C 148.17 48.61 149.30 48.27 149.87 48.10 C 149.84 39.81 149.87 31.52 149.86 23.23 C 149.29 23.04 148.16 22.66 147.59 22.47 C 147.60 21.42 147.62 20.36 147.63 19.31 Z" />
<path fill="#ffffff" stroke="#ffffff" stroke-width="0.09375" opacity="1.00" d=" M 165.86 21.03 C 170.04 19.32 174.50 18.81 178.99 19.13 C 180.17 20.25 181.40 21.32 182.46 22.55 C 182.74 24.23 182.64 25.95 182.70 27.65 C 181.33 27.66 179.96 27.66 178.59 27.66 C 178.21 26.49 177.82 25.33 177.44 24.16 C 174.68 24.05 171.92 23.94 169.16 23.89 C 169.09 31.63 169.10 39.37 169.16 47.11 C 171.94 47.12 174.73 47.04 177.51 46.88 C 177.97 45.49 178.44 44.11 178.90 42.73 C 180.22 42.72 181.55 42.70 182.88 42.69 C 182.86 45.00 182.87 47.31 182.86 49.63 C 178.64 50.91 174.46 52.81 169.94 52.35 C 166.70 52.77 164.59 49.58 162.75 47.41 C 162.70 41.57 162.58 35.71 162.81 29.88 C 163.59 26.86 164.82 23.98 165.86 21.03 Z" />
<path fill="#ffffff" stroke="#ffffff" stroke-width="0.09375" opacity="1.00" d=" M 185.57 19.31 C 189.16 19.31 192.74 19.31 196.33 19.31 C 196.34 20.35 196.36 21.40 196.37 22.44 C 195.83 22.65 194.75 23.06 194.22 23.27 C 194.23 31.54 194.23 39.82 194.21 48.10 C 194.74 48.26 195.78 48.60 196.31 48.77 C 196.29 49.60 196.27 51.26 196.26 52.09 C 192.69 52.10 189.13 52.12 185.58 51.92 C 185.57 51.13 185.55 49.56 185.54 48.77 C 186.11 48.60 187.25 48.27 187.82 48.10 C 187.80 39.82 187.81 31.54 187.82 23.27 C 187.25 23.06 186.10 22.66 185.52 22.45 C 185.54 21.40 185.55 20.36 185.57 19.31 Z" />
<path fill="#ffffff" stroke="#ffffff" stroke-width="0.09375" opacity="1.00" d=" M 210.63 20.89 C 210.96 19.44 211.81 18.42 213.17 17.85 C 216.94 27.84 220.11 38.04 223.76 48.08 C 224.34 48.24 225.51 48.55 226.10 48.70 C 226.09 49.55 226.08 51.24 226.07 52.09 C 222.53 52.08 218.99 52.09 215.45 52.08 C 215.53 50.49 215.89 48.97 216.89 47.70 C 216.49 46.36 216.07 45.03 215.66 43.69 C 212.94 43.69 210.21 43.69 207.49 43.69 C 206.99 45.15 206.49 46.62 205.99 48.09 C 206.55 48.26 207.67 48.60 208.23 48.77 C 208.24 49.83 208.25 50.89 208.26 51.95 C 204.77 52.14 201.27 52.14 197.79 51.95 C 197.80 51.19 197.81 49.68 197.82 48.92 C 198.98 48.19 200.91 48.16 201.37 46.68 C 204.53 38.11 207.53 29.48 210.63 20.89 M 212.97 28.08 C 211.38 31.72 210.30 35.56 208.98 39.31 C 210.86 39.32 212.74 39.33 214.63 39.34 C 213.28 35.72 213.10 31.89 212.97 28.08 Z" />
<path fill="#ffffff" stroke="#ffffff" stroke-width="0.09375" opacity="1.00" d=" M 227.56 19.25 C 231.15 19.26 234.74 19.26 238.33 19.26 C 238.34 20.32 238.35 21.39 238.36 22.46 C 237.80 22.65 236.67 23.03 236.10 23.23 C 236.12 31.20 236.05 39.17 236.14 47.15 C 238.05 47.10 239.97 47.12 241.87 46.83 C 242.82 44.89 243.43 42.81 244.15 40.77 C 245.04 40.73 245.94 40.68 246.83 40.64 C 246.85 43.54 246.85 46.44 246.89 49.34 C 240.78 51.95 234.20 52.49 227.63 52.09 C 227.61 51.26 227.57 49.60 227.55 48.77 C 228.08 48.60 229.16 48.26 229.69 48.09 C 229.68 39.81 229.68 31.54 229.70 23.27 C 229.15 23.06 228.05 22.65 227.51 22.44 C 227.52 21.38 227.54 20.32 227.56 19.25 Z" />
<path fill="#ffffff" stroke="#ffffff" stroke-width="0.09375" opacity="1.00" d=" M 131.77 91.61 C 139.57 91.73 147.37 92.12 155.18 92.29 C 153.76 125.31 152.62 158.35 151.28 191.38 C 160.66 190.71 170.05 190.14 179.44 189.50 C 179.43 193.93 179.44 198.35 179.40 202.78 C 162.83 202.58 146.27 202.51 129.70 202.37 C 130.40 165.45 131.13 128.53 131.77 91.61 Z" />
<path fill="#ffffff" stroke="#ffffff" stroke-width="0.09375" opacity="1.00" d=" M 196.99 96.97 C 203.85 93.09 212.18 92.22 219.94 92.82 C 226.96 93.35 233.98 95.94 238.94 101.07 C 243.60 105.83 246.00 112.39 246.70 118.93 C 247.69 128.34 247.03 137.83 246.23 147.23 C 228.73 148.75 211.23 150.35 193.73 151.85 C 193.33 162.42 195.71 173.37 201.98 182.04 C 204.46 185.52 209.15 185.64 212.97 186.37 C 221.52 187.55 230.27 186.38 238.37 183.49 C 238.98 190.92 239.68 198.34 240.29 205.78 C 227.35 211.00 212.70 212.30 199.18 208.66 C 190.15 206.07 184.24 197.46 182.68 188.52 C 179.26 169.21 179.35 149.26 182.99 129.99 C 185.11 118.20 188.69 105.95 196.99 96.97 M 200.42 114.37 C 197.18 122.75 196.24 131.79 195.25 140.67 C 204.66 139.58 214.07 138.54 223.48 137.47 C 224.28 129.69 224.90 121.47 221.86 114.06 C 220.04 109.75 216.01 105.55 210.94 106.05 C 206.03 106.10 202.07 109.99 200.42 114.37 Z" />
<path fill="#ffffff" stroke="#ffffff" stroke-width="0.09375" opacity="1.00" d=" M 68.75 135.00 C 77.92 121.65 86.79 108.11 95.88 94.70 C 106.86 94.63 117.84 94.48 128.82 94.39 C 113.86 114.22 98.99 134.12 84.04 153.97 C 99.49 172.46 114.83 191.05 130.33 209.51 C 120.63 209.35 110.93 209.32 101.23 209.10 C 90.51 194.04 79.77 178.99 68.92 164.02 C 70.61 178.73 72.28 193.44 73.88 208.16 C 68.03 208.14 62.18 207.82 56.33 207.81 C 56.38 170.85 56.33 133.89 56.36 96.94 C 61.63 96.81 66.91 96.69 72.18 96.57 C 70.98 109.38 69.99 122.20 68.75 135.00 Z" />
<path fill="#ffffff" stroke="#ffffff" stroke-width="0.09375" opacity="1.00" d=" M 250.76 94.38 C 258.48 94.52 266.20 94.66 273.92 94.77 C 273.90 100.94 273.89 107.10 273.92 113.27 C 266.20 113.24 258.48 112.86 250.76 112.78 C 250.76 106.65 250.76 100.52 250.76 94.38 Z" />
<path fill="#ffffff" stroke="#ffffff" stroke-width="0.09375" opacity="1.00" d=" M 253.50 207.24 C 253.39 180.67 253.50 154.11 253.45 127.54 C 260.51 127.68 267.58 127.79 274.65 127.91 C 274.67 154.49 274.62 181.07 274.67 207.64 C 267.62 207.52 260.56 207.32 253.50 207.24 Z" />
<path fill="#ffffff" stroke="#ffffff" stroke-width="0.09375" opacity="1.00" d=" M 39.18 255.87 C 39.36 254.63 40.46 254.17 41.45 253.71 C 45.13 263.51 48.30 273.48 51.78 283.34 C 53.78 284.07 54.84 285.51 54.52 287.74 C 50.86 287.79 47.20 287.82 43.54 287.70 C 43.90 286.17 44.35 284.67 45.06 283.27 C 44.68 282.00 44.30 280.74 43.90 279.48 C 41.15 279.47 38.40 279.47 35.65 279.47 C 35.17 281.45 33.20 284.31 36.47 284.85 C 36.48 285.82 36.48 286.80 36.49 287.78 C 32.94 287.78 29.40 287.80 25.86 287.74 C 25.93 286.67 25.99 285.60 26.06 284.54 C 27.14 284.17 28.23 283.80 29.31 283.44 C 32.60 274.25 35.87 265.05 39.18 255.87 M 37.24 275.14 C 39.11 275.14 40.98 275.14 42.85 275.15 C 41.56 271.49 41.27 267.66 41.23 263.82 C 39.59 267.48 38.56 271.37 37.24 275.14 Z" />
<path fill="#ffffff" stroke="#ffffff" stroke-width="0.09375" opacity="1.00" d=" M 124.24 254.27 C 124.68 254.24 125.54 254.17 125.98 254.13 C 129.62 263.80 132.74 273.68 136.19 283.43 C 138.25 284.05 139.16 285.54 138.98 287.70 C 135.33 287.81 131.68 287.82 128.03 287.70 C 128.41 286.66 129.16 284.58 129.54 283.54 C 129.12 282.18 128.70 280.82 128.28 279.47 C 125.56 279.47 122.84 279.47 120.12 279.48 C 119.66 280.83 119.19 282.19 118.72 283.56 C 120.86 284.05 121.00 285.90 120.99 287.73 C 117.46 287.81 113.92 287.77 110.39 287.79 C 110.36 286.73 110.33 285.66 110.31 284.61 C 111.44 284.21 112.57 283.81 113.70 283.42 C 117.23 273.71 120.50 263.90 124.24 254.27 M 121.60 275.14 C 123.49 275.14 125.37 275.14 127.26 275.14 C 125.97 271.48 125.61 267.64 125.60 263.79 C 123.96 267.46 122.95 271.36 121.60 275.14 Z" />
<path fill="#ffffff" stroke="#ffffff" stroke-width="0.09375" opacity="1.00" d=" M 196.33 254.21 C 196.82 254.20 197.82 254.19 198.31 254.18 C 201.69 264.01 205.06 273.84 208.45 283.67 C 209.07 283.90 210.33 284.36 210.95 284.59 C 210.94 285.65 210.93 286.71 210.92 287.77 C 207.34 287.77 203.75 287.82 200.17 287.71 C 200.98 284.92 202.14 282.29 200.56 279.47 C 197.80 279.47 195.05 279.47 192.29 279.47 C 191.84 280.81 191.39 282.15 190.94 283.49 C 192.90 284.15 193.30 285.85 193.30 287.72 C 189.66 287.81 186.02 287.80 182.38 287.74 C 181.76 284.99 183.60 283.88 185.91 283.30 C 189.39 273.61 192.85 263.91 196.33 254.21 M 193.81 275.14 C 195.68 275.14 197.55 275.14 199.42 275.15 C 198.18 271.49 197.91 267.65 197.66 263.83 C 196.20 267.54 195.09 271.37 193.81 275.14 Z" />
<path fill="#ffffff" stroke="#ffffff" stroke-width="0.09375" opacity="1.00" d=" M 55.91 255.10 C 58.62 255.08 61.32 255.07 64.03 255.08 C 66.18 262.74 70.35 270.04 69.74 278.21 C 72.71 270.60 75.09 262.77 77.83 255.07 C 80.58 255.07 83.33 255.08 86.08 255.12 C 86.09 255.90 86.10 257.46 86.11 258.25 C 85.52 258.43 84.33 258.80 83.73 258.98 C 83.82 267.18 83.53 275.40 83.86 283.59 C 84.37 283.91 85.37 284.53 85.88 284.85 C 85.86 285.83 85.85 286.83 85.83 287.82 C 82.27 287.82 78.70 287.82 75.14 287.82 C 75.12 286.81 75.10 285.81 75.09 284.81 C 77.10 284.36 77.77 282.93 77.38 281.00 C 76.94 274.97 79.50 269.30 79.80 263.34 C 76.40 271.61 74.15 280.32 71.13 288.74 C 70.55 288.70 69.39 288.62 68.81 288.58 C 67.84 285.49 66.80 282.43 65.78 279.36 C 63.76 273.85 64.51 267.83 63.09 262.19 C 62.31 269.27 63.01 276.45 62.81 283.57 C 64.95 284.04 65.04 285.95 65.09 287.76 C 61.93 287.84 58.77 287.85 55.61 287.78 C 55.52 285.78 56.43 284.29 58.00 283.17 C 58.32 275.12 58.04 267.04 58.13 258.98 C 57.57 258.81 56.45 258.46 55.89 258.28 C 55.90 257.49 55.91 255.90 55.91 255.10 Z" />
<path fill="#ffffff" stroke="#ffffff" stroke-width="0.09375" opacity="1.00" d=" M 88.88 255.11 C 94.16 255.06 99.44 255.06 104.72 255.11 C 106.17 256.49 107.63 257.88 109.09 259.27 C 108.69 262.93 110.26 267.23 107.62 270.30 C 108.75 271.33 109.88 272.37 111.02 273.41 C 110.95 277.53 109.08 281.28 107.91 285.16 C 105.03 286.01 102.23 287.18 99.26 287.70 C 95.73 287.91 92.20 287.76 88.68 287.73 C 88.10 284.81 91.76 283.86 91.14 281.05 C 91.13 273.69 91.12 266.33 91.12 258.98 C 90.56 258.80 89.44 258.46 88.87 258.28 C 88.88 257.49 88.88 255.90 88.88 255.11 M 97.18 259.28 C 97.20 262.12 97.20 264.97 97.19 267.82 C 99.16 267.82 101.14 267.81 103.12 267.80 C 103.12 264.96 103.12 262.13 103.13 259.29 C 101.14 259.28 99.16 259.27 97.18 259.28 M 97.18 272.20 C 97.21 275.64 97.21 279.09 97.17 282.54 C 99.64 282.55 102.12 282.55 104.59 282.55 C 104.56 279.10 104.56 275.65 104.58 272.20 C 102.11 272.19 99.65 272.19 97.18 272.20 Z" />
<path fill="#ffffff" stroke="#ffffff" stroke-width="0.09375" opacity="1.00" d=" M 142.49 256.72 C 146.23 255.33 150.12 254.34 154.14 254.67 C 155.38 255.81 156.63 256.96 157.88 258.10 C 157.89 259.88 157.91 261.66 157.94 263.44 C 156.62 263.44 155.31 263.45 154.00 263.46 C 153.53 262.23 153.07 261.00 152.60 259.79 C 150.47 259.81 148.34 259.81 146.22 259.82 C 146.22 262.39 146.21 264.97 146.18 267.55 C 148.51 267.55 150.85 267.46 153.18 267.62 C 155.19 268.95 156.78 270.80 158.55 272.43 C 158.53 276.15 158.53 279.87 158.55 283.59 C 156.85 285.14 155.35 286.95 153.38 288.16 C 148.58 288.84 144.06 286.91 139.60 285.49 C 139.59 283.16 139.58 280.83 139.57 278.50 C 140.55 278.49 142.51 278.49 143.49 278.48 C 144.00 279.91 144.51 281.33 145.02 282.77 C 147.42 282.78 149.83 282.78 152.24 282.79 C 152.23 279.66 152.23 276.54 152.25 273.42 C 147.50 272.06 142.46 270.90 139.24 266.81 C 140.32 263.45 141.41 260.08 142.49 256.72 Z" />
<path fill="#ffffff" stroke="#ffffff" stroke-width="0.09375" opacity="1.00" d=" M 166.05 256.77 C 169.82 255.33 173.75 254.29 177.82 254.71 C 179.05 255.88 180.29 257.04 181.54 258.20 C 181.56 259.94 181.58 261.69 181.60 263.44 C 180.60 263.45 178.58 263.45 177.57 263.46 C 177.14 262.24 176.71 261.02 176.28 259.81 C 174.11 259.81 171.95 259.81 169.78 259.81 C 169.78 262.39 169.78 264.97 169.77 267.55 C 172.20 267.55 174.63 267.56 177.06 267.57 C 178.75 269.26 180.78 270.69 182.10 272.72 C 182.30 276.37 182.15 280.03 182.14 283.69 C 180.50 285.21 178.86 286.73 177.20 288.25 C 172.33 288.70 167.72 287.01 163.19 285.48 C 163.21 283.15 163.22 280.82 163.20 278.49 C 164.50 278.49 165.80 278.49 167.11 278.50 C 167.61 279.92 168.12 281.35 168.64 282.78 C 171.03 282.78 173.43 282.78 175.83 282.78 C 175.81 279.64 175.81 276.50 175.82 273.37 C 171.07 272.05 166.00 270.93 162.84 266.77 C 163.93 263.45 165.02 260.12 166.05 256.77 Z" />
<path fill="#ffffff" stroke="#ffffff" stroke-width="0.09375" opacity="1.00" d=" M 212.41 255.07 C 218.86 255.09 225.32 255.06 231.78 255.09 C 233.37 256.58 234.95 258.07 236.54 259.57 C 236.51 264.05 236.53 268.53 236.55 273.01 C 236.83 277.31 234.60 281.17 233.42 285.18 C 230.63 286.01 227.90 287.11 225.04 287.67 C 220.85 287.95 216.63 287.70 212.43 287.79 C 212.40 286.73 212.38 285.68 212.35 284.63 C 212.90 284.43 213.99 284.02 214.53 283.81 C 214.45 275.65 214.67 267.47 214.44 259.31 C 213.93 258.98 212.91 258.32 212.40 257.98 C 212.40 257.01 212.40 256.04 212.41 255.07 M 220.86 259.28 C 220.86 267.11 220.86 274.94 220.86 282.77 C 223.97 282.78 227.09 282.78 230.21 282.78 C 230.20 274.95 230.20 267.11 230.21 259.27 C 227.09 259.27 223.97 259.27 220.86 259.28 Z" />
<path fill="#ffffff" stroke="#ffffff" stroke-width="0.09375" opacity="1.00" d=" M 245.68 256.85 C 250.59 254.71 255.91 254.64 261.17 254.83 C 262.89 256.36 264.58 257.91 266.24 259.51 C 266.07 265.06 266.40 270.63 266.08 276.18 C 265.36 279.33 264.09 282.32 263.10 285.39 C 258.05 287.15 252.62 289.17 247.25 287.79 C 245.51 286.51 243.83 285.04 242.60 283.25 C 242.52 277.50 242.49 271.74 242.62 265.99 C 243.26 262.83 244.65 259.89 245.68 256.85 M 248.86 259.77 C 248.86 267.44 248.86 275.10 248.85 282.77 C 252.51 282.78 256.16 282.78 259.82 282.77 C 259.78 275.10 259.79 267.43 259.81 259.76 C 256.15 259.76 252.50 259.76 248.86 259.77 Z" />
<path fill="#ffffff" stroke="#ffffff" stroke-width="0.09375" opacity="1.00" d=" M 270.71 255.07 C 276.42 255.09 282.14 255.07 287.86 255.09 C 289.28 256.59 291.18 257.80 292.12 259.68 C 292.29 262.39 292.17 265.11 292.18 267.82 C 290.71 269.15 289.25 270.48 287.80 271.81 C 289.32 275.76 290.75 279.74 292.25 283.71 C 292.89 283.94 294.17 284.40 294.81 284.63 C 294.78 285.68 294.76 286.73 294.74 287.79 C 292.04 287.78 289.34 287.77 286.65 287.77 C 285.17 282.64 282.58 277.69 282.80 272.21 C 281.60 272.22 280.40 272.23 279.20 272.25 C 279.23 276.13 279.21 280.02 279.25 283.90 C 279.81 284.07 280.94 284.40 281.51 284.57 C 281.49 285.64 281.47 286.71 281.46 287.79 C 277.87 287.77 274.29 287.77 270.71 287.79 C 270.69 286.72 270.67 285.64 270.66 284.58 C 271.19 284.40 272.26 284.04 272.79 283.86 C 272.84 275.55 272.80 267.24 272.82 258.93 C 272.28 258.78 271.21 258.48 270.67 258.33 C 270.68 257.51 270.70 255.89 270.71 255.07 M 279.20 259.28 C 279.22 262.11 279.22 264.94 279.21 267.78 C 281.40 267.78 283.59 267.78 285.79 267.78 C 285.77 264.94 285.77 262.11 285.80 259.28 C 283.60 259.28 281.40 259.28 279.20 259.28 Z" />
</svg>
